{
  "source": "C:\\Users\\Peter\\Desktop\\stuff\\MIUN\\quantitative_research\\video_compression\\videos\\BVI-HD\\RockWater_1920x1080_30fps.mp4",
  "output": "C:\\Users\\Peter\\Desktop\\stuff\\MIUN\\quantitative_research\\video_compression\\compressed_videos\\BVI-HD\\hevc\\4\\RockWater_1920x1080_30fps_hevc.mp4",
  "codec": "hevc",
  "ok": "Input #0, mov,mp4,m4a,3gp,3g2,mj2, from 'C:\\Users\\Peter\\Desktop\\stuff\\MIUN\\quantitative_research\\video_compression\\videos\\BVI-HD\\RockWater_1920x1080_30fps.mp4':\n  Metadata:\n    major_brand     : isom\n    minor_version   : 512\n    compatible_brands: isomiso2avc1mp41\n    encoder         : Lavf54.28.101\n  Duration: 00:00:05.00, start: 0.000000, bitrate: 245943 kb/s\n  Stream #0:0[0x1](und): Video: h264 (High 4:4:4 Predictive) (avc1 / 0x31637661), yuv420p(progressive), 1920x1080, 245940 kb/s, 30 fps, 30 tbr, 30 tbn (default)\n    Metadata:\n      handler_name    : VideoHandler\n      vendor_id       : [0][0][0][0]\n[out#0/mp4 @ 000001ab035c1440] Codec AVOption b:a (set bitrate (in bits/s)) has not been used for any stream. The most likely reason is either wrong type (e.g. a video option with no video streams) or that it is a private option of some decoder which was not actually used for any stream.\nStream mapping:\n  Stream #0:0 -> #0:0 (h264 (native) -> hevc (libx265))\nPress [q] to stop, [?] for help\n[libx265 @ 000001ab03e747c0] Unknown option: \"aq-mode.\nx265 [info]: HEVC encoder version 4.1+190-8f11c33ac\nx265 [info]: build info [Windows][GCC 15.1.0][64 bit] 10bit\nx265 [info]: using cpu capabilities: MMX2 SSE2Fast LZCNT SSSE3 SSE4.2 AVX FMA3 BMI2 AVX2\nx265 [info]: Main 10 profile, Level-4 (Main tier)\nx265 [info]: Thread pool created using 12 threads\nx265 [info]: Slices                              : 1\nx265 [info]: frame threads / pool features       : 3 / wpp(17 rows)\nx265 [info]: Coding QT: max CU size, min CU size : 64 / 8\nx265 [info]: Residual QT: max TU size, max depth : 32 / 1 inter / 1 intra\nx265 [info]: ME / range / subpel / merge         : star / 57 / 3 / 3\nx265 [info]: Keyframe min / max / scenecut / bias  : 25 / 250 / 40 / 5.00 \nx265 [info]: Lookahead / bframes / badapt        : 25 / 4 / 2\nx265 [info]: b-pyramid / weightp / weightb       : 1 / 1 / 0\nx265 [info]: References / ref-limit  cu / depth  : 4 / on / on\nx265 [info]: AQ: mode / str / qg-size / cu-tree  : 2 / 1.0 / 32 / 1\nx265 [info]: Rate Control / qCompress            : ABR-4000 kbps / 0.60\nx265 [info]: VBV/HRD buffer / max-rate / init    : 4000 / 4000 / 0.750\nx265 [info]: tools: rect limit-modes rd=4 psy-rd=2.00 rdoq=2 psy-rdoq=1.00\nx265 [info]: tools: rskip mode=1 signhide tmvp strong-intra-smoothing lslices=4\nx265 [info]: tools: deblock sao dhdr10-info\nOutput #0, mp4, to 'C:\\Users\\Peter\\Desktop\\stuff\\MIUN\\quantitative_research\\video_compression\\compressed_videos\\BVI-HD\\hevc\\4\\RockWater_1920x1080_30fps_hevc.mp4':\n  Metadata:\n    major_brand     : isom\n    minor_version   : 512\n    compatible_brands: isomiso2avc1mp41\n    encoder         : Lavf62.3.100\n  Stream #0:0(und): Video: hevc (hev1 / 0x31766568), yuv420p10le(tv, progressive), 1920x1080, q=2-31, 4000 kb/s, 30 fps, 15360 tbn (default)\n    Metadata:\n      encoder         : Lavc62.11.100 libx265\n      handler_name    : VideoHandler\n      vendor_id       : [0][0][0][0]\n    Side data:\n      cpb: bitrate max/min/avg: 4000000/0/4000000 buffer size: 4000000 vbv_delay: N/A\nframe=    0 fps=0.0 q=0.0 size=       0KiB time=N/A bitrate=N/A speed=N/A elapsed=0:00:00.50    \nframe=    0 fps=0.0 q=0.0 size=       0KiB time=N/A bitrate=N/A speed=N/A elapsed=0:00:01.07    \nframe=    2 fps=1.2 q=37.4 size=       0KiB time=00:00:00.00 bitrate=N/A speed=   0x elapsed=0:00:01.60    \nframe=    4 fps=1.9 q=40.8 size=       0KiB time=00:00:00.06 bitrate=   5.3kbits/s speed=0.0316x elapsed=0:00:02.10    \nframe=    6 fps=2.3 q=38.6 size=       0KiB time=00:00:00.13 bitrate=   2.6kbits/s speed=0.0508x elapsed=0:00:02.62    \nframe=    9 fps=2.9 q=36.2 size=       0KiB time=00:00:00.23 bitrate=   1.5kbits/s speed=0.0742x elapsed=0:00:03.14    \nframe=   11 fps=3.0 q=39.4 size=       0KiB time=00:00:00.30 bitrate=   1.2kbits/s speed=0.0821x elapsed=0:00:03.65    \nframe=   14 fps=3.4 q=39.0 size=       0KiB time=00:00:00.40 bitrate=   0.9kbits/s speed=0.0958x elapsed=0:00:04.17    \nframe=   16 fps=3.4 q=35.9 size=     256KiB time=00:00:00.46 bitrate=4494.6kbits/s speed=0.0994x elapsed=0:00:04.69    \nframe=   19 fps=3.7 q=35.9 size=     256KiB time=00:00:00.56 bitrate=3701.5kbits/s speed=0.109x elapsed=0:00:05.20    \nframe=   22 fps=3.8 q=39.9 size=     256KiB time=00:00:00.66 bitrate=3146.3kbits/s speed=0.116x elapsed=0:00:05.72    \nframe=   25 fps=4.0 q=38.1 size=     256KiB time=00:00:00.76 bitrate=2735.9kbits/s speed=0.123x elapsed=0:00:06.24    \nframe=   28 fps=4.1 q=35.8 size=     256KiB time=00:00:00.86 bitrate=2420.2kbits/s speed=0.128x elapsed=0:00:06.75    \nframe=   30 fps=4.1 q=39.3 size=     256KiB time=00:00:00.93 bitrate=2247.3kbits/s speed=0.128x elapsed=0:00:07.26    \nframe=   33 fps=4.2 q=39.6 size=     512KiB time=00:00:01.03 bitrate=4059.3kbits/s speed=0.133x elapsed=0:00:07.78    \nframe=   36 fps=4.3 q=35.6 size=     512KiB time=00:00:01.13 bitrate=3701.2kbits/s speed=0.136x elapsed=0:00:08.30    \nframe=   39 fps=4.4 q=39.4 size=     512KiB time=00:00:01.23 bitrate=3401.1kbits/s speed=0.14x elapsed=0:00:08.81    \nframe=   42 fps=4.5 q=35.0 size=     512KiB time=00:00:01.33 bitrate=3146.0kbits/s speed=0.143x elapsed=0:00:09.33    \nframe=   45 fps=4.6 q=39.4 size=     512KiB time=00:00:01.43 bitrate=2926.5kbits/s speed=0.146x elapsed=0:00:09.84    \nframe=   48 fps=4.6 q=37.7 size=     768KiB time=00:00:01.53 bitrate=4103.4kbits/s speed=0.148x elapsed=0:00:10.36    \nframe=   52 fps=4.8 q=37.5 size=     768KiB time=00:00:01.66 bitrate=3775.1kbits/s speed=0.153x elapsed=0:00:10.88    \nframe=   55 fps=4.8 q=34.9 size=     768KiB time=00:00:01.76 bitrate=3561.4kbits/s speed=0.155x elapsed=0:00:11.40    \nframe=   59 fps=5.0 q=34.8 size=     768KiB time=00:00:01.90 bitrate=3311.5kbits/s speed=0.159x elapsed=0:00:11.91    \nframe=   63 fps=5.1 q=37.4 size=     768KiB time=00:00:02.03 bitrate=3094.3kbits/s speed=0.164x elapsed=0:00:12.42    \nframe=   66 fps=5.1 q=34.7 size=    1024KiB time=00:00:02.13 bitrate=3932.3kbits/s speed=0.165x elapsed=0:00:12.94    \nframe=   70 fps=5.2 q=39.4 size=    1024KiB time=00:00:02.26 bitrate=3701.0kbits/s speed=0.168x elapsed=0:00:13.45    \nframe=   73 fps=5.2 q=39.1 size=    1024KiB time=00:00:02.36 bitrate=3544.6kbits/s speed=0.169x elapsed=0:00:13.96    \nframe=   77 fps=5.3 q=39.3 size=    1024KiB time=00:00:02.50 bitrate=3355.6kbits/s speed=0.173x elapsed=0:00:14.48    \nframe=   80 fps=5.3 q=39.3 size=    1024KiB time=00:00:02.60 bitrate=3226.5kbits/s speed=0.173x elapsed=0:00:15.00    \nframe=   84 fps=5.4 q=39.0 size=    1280KiB time=00:00:02.73 bitrate=3836.4kbits/s speed=0.176x elapsed=0:00:15.51    \nframe=   88 fps=5.5 q=38.7 size=    1280KiB time=00:00:02.86 bitrate=3657.9kbits/s speed=0.179x elapsed=0:00:16.03    \nframe=   91 fps=5.5 q=39.0 size=    1280KiB time=00:00:02.96 bitrate=3534.6kbits/s speed=0.179x elapsed=0:00:16.55    \nframe=   95 fps=5.6 q=37.3 size=    1280KiB time=00:00:03.10 bitrate=3382.6kbits/s speed=0.182x elapsed=0:00:17.06    \nframe=   98 fps=5.6 q=39.4 size=    1536KiB time=00:00:03.20 bitrate=3932.3kbits/s speed=0.182x elapsed=0:00:17.58    \nframe=  102 fps=5.6 q=39.3 size=    1536KiB time=00:00:03.33 bitrate=3775.0kbits/s speed=0.184x elapsed=0:00:18.09    \nframe=  106 fps=5.7 q=34.7 size=    1536KiB time=00:00:03.46 bitrate=3629.8kbits/s speed=0.186x elapsed=0:00:18.60    \nframe=  110 fps=5.8 q=34.7 size=    1536KiB time=00:00:03.60 bitrate=3495.4kbits/s speed=0.188x elapsed=0:00:19.12    \nframe=  113 fps=5.8 q=34.9 size=    1792KiB time=00:00:03.70 bitrate=3967.7kbits/s speed=0.188x elapsed=0:00:19.64    \nframe=  117 fps=5.8 q=34.9 size=    1792KiB time=00:00:03.83 bitrate=3829.7kbits/s speed=0.19x elapsed=0:00:20.16    \nframe=  120 fps=5.8 q=39.8 size=    1792KiB time=00:00:03.93 bitrate=3732.3kbits/s speed=0.19x elapsed=0:00:20.67    \nframe=  123 fps=5.8 q=38.8 size=    1792KiB time=00:00:04.03 bitrate=3639.8kbits/s speed=0.19x elapsed=0:00:21.18    \nframe=  126 fps=5.8 q=39.9 size=    2048KiB time=00:00:04.13 bitrate=4059.1kbits/s speed=0.19x elapsed=0:00:21.70    \nframe=  130 fps=5.8 q=39.9 size=    2048KiB time=00:00:04.26 bitrate=3932.2kbits/s speed=0.192x elapsed=0:00:22.22    \nframe=  133 fps=5.9 q=39.9 size=    2048KiB time=00:00:04.36 bitrate=3842.2kbits/s speed=0.192x elapsed=0:00:22.73    \nframe=  137 fps=5.9 q=40.1 size=    2048KiB time=00:00:04.50 bitrate=3728.3kbits/s speed=0.194x elapsed=0:00:23.24    \nframe=  141 fps=5.9 q=38.4 size=    2048KiB time=00:00:04.63 bitrate=3621.1kbits/s speed=0.195x elapsed=0:00:23.76    \nframe=  144 fps=5.9 q=37.3 size=    2304KiB time=00:00:04.73 bitrate=3987.6kbits/s speed=0.195x elapsed=0:00:24.28    \n[mp4 @ 000001ab035c1580] Starting second pass: moving the moov atom to the beginning of the file\n[out#0/mp4 @ 000001ab035c1440] video:2409KiB audio:0KiB subtitle:0KiB other streams:0KiB global headers:2KiB muxing overhead: 0.213419%\nframe=  150 fps=6.1 q=40.3 Lsize=    2414KiB time=00:00:04.93 bitrate=4008.3kbits/s speed=0.199x elapsed=0:00:24.76    \nx265 [info]: frame I:      1, Avg QP:32.81  kb/s: 12890.88\nx265 [info]: frame P:     39, Avg QP:35.33  kb/s: 7067.50 \nx265 [info]: frame B:    110, Avg QP:39.06  kb/s: 2757.23 \nx265 [info]: Weighted P-Frames: Y:15.4% UV:12.8%\n\nencoded 150 frames in 24.61s (6.10 fps), 3945.46 kb/s, Avg QP:38.05\n",
  "seconds": 24.94377851486206,
  "probe_out": {}
}